<?xml version="1.0" standalone="no"?>
<!DOCTYPE svg PUBLIC "-//W3C//DTD SVG 20010904//EN"
 "http://www.w3.org/TR/2001/REC-SVG-20010904/DTD/svg10.dtd">
<svg version="1.0" xmlns="http://www.w3.org/2000/svg"
 width="225.000000pt" height="225.000000pt" viewBox="0 0 225.000000 225.000000"
 preserveAspectRatio="xMidYMid meet">
<metadata>
Created by potrace 1.14, written by Peter Selinger 2001-2017
</metadata>
<g transform="translate(0.000000,225.000000) scale(0.100000,-0.100000)"
fill="#000000" stroke="none">
<path d="M1029 2246 c-4 -4 -59 -14 -116 -21 -37 -5 -87 -17 -98 -24 -5 -3
-12 -6 -15 -7 -49 -9 -151 -51 -161 -67 -3 -5 -8 -8 -10 -6 -9 5 -49 -13 -49
-22 0 -5 -3 -8 -7 -7 -12 3 -57 -23 -66 -39 -5 -7 -12 -11 -18 -8 -5 4 -9 1
-9 -4 0 -6 -6 -11 -13 -11 -7 0 -20 -8 -29 -17 -9 -10 -28 -27 -42 -38 -13
-10 -22 -24 -19 -29 3 -5 2 -6 -3 -3 -6 3 -30 -15 -54 -40 -62 -65 -98 -109
-80 -98 8 5 -2 -8 -23 -28 -20 -21 -37 -44 -37 -52 0 -8 -5 -15 -11 -15 -5 0
-7 -5 -4 -10 3 -6 -1 -13 -10 -16 -9 -4 -14 -12 -11 -20 3 -7 1 -14 -4 -16 -5
-2 -10 -10 -12 -18 -2 -8 -6 -17 -9 -20 -13 -12 -49 -102 -44 -110 4 -6 2 -10
-3 -10 -9 0 -39 -104 -49 -170 -3 -14 -7 -41 -10 -60 -11 -73 -14 -230 -4
-230 5 0 8 -12 5 -27 -3 -14 -2 -33 2 -42 4 -9 8 -27 9 -41 5 -42 15 -82 27
-104 6 -12 10 -23 9 -26 -4 -11 24 -90 32 -90 4 0 5 -4 2 -10 -3 -5 -1 -10 4
-10 6 0 10 -4 9 -8 -5 -14 64 -142 91 -169 14 -15 20 -23 12 -18 -9 5 -7 -2 5
-18 10 -15 22 -27 27 -27 4 0 7 -7 7 -16 0 -8 4 -12 10 -9 6 3 10 0 10 -7 0
-14 170 -181 177 -174 3 2 13 -3 22 -12 24 -23 58 -45 65 -43 4 1 16 -8 28
-19 12 -11 26 -20 31 -20 5 0 22 -9 39 -21 16 -12 32 -18 35 -15 4 3 15 -1 25
-11 10 -9 18 -13 18 -8 0 4 7 2 15 -5 8 -6 18 -9 24 -6 5 3 11 2 13 -4 1 -5
12 -11 23 -13 11 -2 29 -8 39 -12 10 -5 28 -9 40 -10 12 -1 32 -5 46 -9 72
-19 268 -26 350 -13 19 3 52 8 74 11 21 4 46 11 56 16 9 5 20 7 23 4 3 -3 12
-2 19 2 7 5 22 10 32 11 11 2 25 8 33 14 7 6 13 8 13 4 0 -4 6 -2 13 4 8 6 17
8 20 4 4 -3 7 0 7 7 0 7 3 10 7 7 3 -4 12 -2 20 4 7 6 13 8 13 3 0 -4 12 3 27
17 14 13 22 17 18 9 -7 -12 -5 -12 11 1 10 9 27 19 37 22 9 4 17 10 17 15 0 5
6 9 13 9 17 0 67 33 67 44 0 5 6 8 13 7 6 -2 11 3 9 10 -1 6 1 11 5 10 16 -4
53 23 53 39 0 9 3 14 6 10 9 -8 74 53 74 70 0 8 4 12 8 9 9 -5 24 10 62 64 13
19 27 37 31 40 4 3 9 11 11 19 2 8 13 25 25 39 13 13 20 28 17 33 -3 5 -2 9 3
9 4 0 16 14 25 31 10 17 12 27 5 23 -7 -4 -6 1 3 12 26 34 41 65 35 74 -4 6
-1 10 5 10 7 0 10 7 6 15 -3 8 -1 15 4 15 7 0 20 36 26 75 1 6 3 15 4 20 2 6
4 15 5 20 2 6 4 12 5 15 2 6 9 54 13 97 2 18 6 36 10 39 9 9 9 189 0 198 -4 3
-8 21 -10 39 -6 73 -23 156 -34 163 -5 3 -7 10 -4 15 4 5 3 15 -2 22 -4 6 -9
21 -10 32 -2 10 -8 22 -14 25 -5 4 -9 11 -8 16 2 5 -4 25 -13 44 -8 19 -15 39
-16 44 0 5 -4 12 -9 15 -7 5 -13 15 -47 76 -11 19 -18 29 -44 60 -7 8 -10 15
-6 15 4 0 -5 11 -20 25 -15 14 -24 25 -21 25 3 0 -18 25 -46 55 -29 30 -57 51
-63 48 -6 -3 -8 -3 -4 2 9 9 -53 66 -64 59 -5 -3 -7 -1 -6 4 2 6 -1 9 -5 8 -5
0 -13 7 -18 17 -6 9 -17 17 -24 17 -8 0 -15 4 -15 9 0 5 -8 12 -17 15 -23 8
-56 28 -79 46 -16 13 -17 13 -9 0 6 -11 4 -11 -11 2 -10 9 -26 18 -34 20 -8 2
-18 7 -21 11 -3 5 -12 9 -20 10 -8 2 -20 6 -26 10 -7 5 -17 5 -23 2 -5 -3 -10
-2 -10 4 0 8 -40 21 -80 26 -3 0 -10 4 -16 8 -7 4 -30 8 -51 10 -22 2 -44 7
-49 10 -5 3 -24 4 -42 3 -17 -1 -32 1 -32 6 0 8 -183 12 -191 4z"/>
</g>
</svg>
